<?xml version="1.0" encoding="UTF-8"?>
<svg width="48px" height="48px" viewBox="0 0 48 48" version="1.1" xmlns="http://www.w3.org/2000/svg" xmlns:xlink="http://www.w3.org/1999/xlink">
    <title>椭圆形备份 2</title>
    <g id="页面-1" stroke="none" stroke-width="1" fill="none" fill-rule="evenodd" stroke-linecap="round" stroke-linejoin="round">
        <g id="首页" transform="translate(-274.000000, -301.000000)" stroke="#B8A8FF">
            <g id="编组-12" transform="translate(270.000000, 297.000000)">
                <circle id="椭圆形备份-2" transform="translate(28.500000, 28.500000) rotate(-345.000000) translate(-28.500000, -28.500000) " cx="28.5" cy="28.5" r="22.5"></circle>
                <path d="M24.3169379,21.4092985 L36.3732873,28.6431081 C36.8468675,28.9272562 37.0004326,29.5415165 36.7162844,30.0150968 C36.6318347,30.1558464 36.5140369,30.2736442 36.3732873,30.3580939 L24.3169379,37.5919036 C23.8433576,37.8760517 23.2290974,37.7224866 22.9449492,37.2489064 C22.8517,37.093491 22.8024421,36.9156546 22.8024421,36.7344106 L22.8024421,22.2667914 C22.8024421,21.7145066 23.2501574,21.2667914 23.8024421,21.2667914 C23.9836861,21.2667914 24.1615225,21.3160492 24.3169379,21.4092985 Z" id="矩形" transform="translate(30.302442, 29.500601) rotate(-345.000000) translate(-30.302442, -29.500601) "></path>
            </g>
        </g>
    </g>
</svg>