<?xml version="1.0" encoding="UTF-8"?>
<svg width="86px" height="92px" viewBox="0 0 86 92" version="1.1" xmlns="http://www.w3.org/2000/svg" xmlns:xlink="http://www.w3.org/1999/xlink">
    <title>编组 9</title>
    <g id="页面-1" stroke="none" stroke-width="1" fill="none" fill-rule="evenodd" stroke-linecap="round" stroke-linejoin="round">
        <g id="首页" transform="translate(-140.000000, -421.000000)" stroke="#FFAB91">
            <g id="编组-9" transform="translate(140.000000, 421.000000)">
                <path d="M20,11 L52,11 L52,11 L70,29 L70,77 C70,79.209139 68.209139,81 66,81 L20,81 C17.790861,81 16,79.209139 16,77 L16,15 C16,12.790861 17.790861,11 20,11 Z" id="矩形备份-5" transform="translate(43.000000, 46.000000) rotate(-330.000000) translate(-43.000000, -46.000000) "></path>
                <path d="M62.5884573,23.4833395 L80.5884573,41.4833395 L66.5884573,41.4833395 C64.3793183,41.4833395 62.5884573,39.6924785 62.5884573,37.4833395 L62.5884573,23.4833395 L62.5884573,23.4833395 Z" id="矩形" transform="translate(71.588457, 32.483340) rotate(-330.000000) translate(-71.588457, -32.483340) "></path>
                <path d="M31.6830127,65.3791651 L31.6830127,52.3791651 L31.6830127,38.3791651 L41.6830127,38.3791651 C45.549006,38.3791651 48.6830127,41.5131719 48.6830127,45.3791651 C48.6830127,49.2451584 45.549006,52.3791651 41.6830127,52.3791651 L35.6830127,52.3791651 L35.6830127,52.3791651" id="路径-19" transform="translate(40.183013, 51.879165) rotate(-330.000000) translate(-40.183013, -51.879165) "></path>
            </g>
        </g>
    </g>
</svg>