<?xml version="1.0" encoding="UTF-8"?>
<svg width="64px" height="68px" viewBox="0 0 64 68" version="1.1" xmlns="http://www.w3.org/2000/svg" xmlns:xlink="http://www.w3.org/1999/xlink">
    <title>编组 25</title>
    <g id="页面-1" stroke="none" stroke-width="1" fill="none" fill-rule="evenodd" stroke-linecap="round" stroke-linejoin="round">
        <g id="首页" transform="translate(-1095.000000, -292.000000)" stroke="#92ECA4">
            <g id="编组-25" transform="translate(1095.000000, 292.000000)">
                <line x1="13.7128129" y1="6.29253029" x2="18.8840942" y2="8.84945222" id="路径-18"></line>
                <path d="M13.7128129,6.29253029 C29.0181769,-2.54402571 48.5890698,2.69997926 57.4256258,18.0053432 C66.2621818,33.3107072 61.0181769,52.8816001 45.7128129,61.7181561 C30.407449,70.5547121 10.836556,65.3107072 2,50.0053432" id="椭圆形"></path>
                <path d="M17.1846097,28.3058587 L31.0410162,20.3058587 C32.5715525,19.4222031 34.5286418,19.9466036 35.4122974,21.47714 L43.4122974,35.3335464 C44.295953,36.8640828 43.7715525,38.8211721 42.2410162,39.7048277 L28.3846097,47.7048277 C26.8540733,48.5884833 24.896984,48.0640828 24.0133284,46.5335464 L16.0133284,32.67714 C15.1296728,31.1466036 15.6540733,29.1895143 17.1846097,28.3058587 Z" id="矩形备份-6"></path>
            </g>
        </g>
    </g>
</svg>