<?xml version="1.0" encoding="UTF-8"?>
<svg width="120px" height="120px" viewBox="0 0 120 120" version="1.1" xmlns="http://www.w3.org/2000/svg" xmlns:xlink="http://www.w3.org/1999/xlink">
    <title>编组 5备份 2</title>
    <g id="页面-1" stroke="none" stroke-width="1" fill="none" fill-rule="evenodd">
        <g id="加入我们-人在-Netless" transform="translate(-206.000000, -1554.000000)">
            <g id="编组-5备份-2" transform="translate(206.000000, 1554.000000)">
                <rect id="矩形备份-7" fill="#FFFFFF" x="0" y="0" width="120" height="120"></rect>
                <path d="M40,44 L40,55.9688711 C40,58.4616197 41.3356881,60.7632503 43.5,62 L45.2635137,63.0077221 C46.3373131,63.6213218 47,64.7632503 47,66 C47,67.2020818 46.2517532,68.2771285 45.1245025,68.6946287 L28.4397388,74.8741708 C23.3671107,76.752922 20,81.590632 20,87 C20,91.9705627 24.0294373,96 29,96 L75,96 C79.9705627,96 84,91.9705627 84,87 C84,81.590632 80.6328893,76.752922 75.5602612,74.8741708 L58.8754975,68.6946287 C57.7482468,68.2771285 57,67.2020818 57,66 C57,64.7632503 57.6626869,63.6213218 58.7364863,63.0077221 L60.5,62 C62.6643119,60.7632503 64,58.4616197 64,55.9688711 L64,44 C64,37.372583 58.627417,32 52,32 C45.372583,32 40,37.372583 40,44 Z" id="路径-90" stroke="#3381FF" stroke-width="2" stroke-linecap="round" stroke-linejoin="round"></path>
                <path d="M100,88 L100,84.39618 C100,75.7434871 94.6140521,68.0052045 86.5,65 L74.8754975,60.6946287 C73.7482468,60.2771285 73,59.2020818 73,58 C73,56.7632503 73.6626869,55.6213218 74.7364863,55.0077221 L76.5,54 C78.6643119,52.7632503 80,50.4616197 80,47.9688711 L80,36 C80,29.372583 74.627417,24 68,24 L68,24 L68,24" id="路径-90备份" stroke="#A9CAFF" stroke-width="2" stroke-linecap="round" stroke-linejoin="round"></path>
            </g>
        </g>
    </g>
</svg>