<?xml version="1.0" encoding="UTF-8"?>
<svg width="120px" height="120px" viewBox="0 0 120 120" version="1.1" xmlns="http://www.w3.org/2000/svg" xmlns:xlink="http://www.w3.org/1999/xlink">
    <title>编组 5备份 2</title>
    <g id="页面-1" stroke="none" stroke-width="1" fill="none" fill-rule="evenodd">
        <g id="加入我们-人在-Netless" transform="translate(-206.000000, -1946.000000)">
            <g id="编组-5备份-2" transform="translate(206.000000, 1946.000000)">
                <rect id="矩形备份-7" fill="#FFFFFF" x="0" y="0" width="120" height="120"></rect>
                <path d="M80,26 C87.7319865,26 94,32.2680135 94,40 C94,47.7319865 87.7319865,54 80,54 L66,54 L66,54 L66,40 C66,32.2680135 72.2680135,26 80,26 Z" id="矩形" stroke="#A9CAFF" stroke-width="2" stroke-linecap="round" stroke-linejoin="round"></path>
                <path d="M40,66 L54,66 L54,66 L54,80 C54,87.7319865 47.7319865,94 40,94 C32.2680135,94 26,87.7319865 26,80 C26,72.2680135 32.2680135,66 40,66 Z" id="矩形备份-6" stroke="#3381FF" stroke-width="2" stroke-linecap="round" stroke-linejoin="round"></path>
                <path d="M66,66 L80,66 C87.7319865,66 94,72.2680135 94,80 C94,87.7319865 87.7319865,94 80,94 C72.2680135,94 66,87.7319865 66,80 L66,66 L66,66 Z" id="矩形备份-8" stroke="#3381FF" stroke-width="2" stroke-linecap="round" stroke-linejoin="round"></path>
                <path d="M40,26 C47.7319865,26 54,32.2680135 54,40 L54,54 L54,54 L40,54 C32.2680135,54 26,47.7319865 26,40 C26,32.2680135 32.2680135,26 40,26 Z" id="矩形" stroke="#3381FF" stroke-width="2" stroke-linecap="round" stroke-linejoin="round"></path>
            </g>
        </g>
    </g>
</svg>