<?xml version="1.0" encoding="UTF-8"?>
<svg width="120px" height="120px" viewBox="0 0 120 120" version="1.1" xmlns="http://www.w3.org/2000/svg" xmlns:xlink="http://www.w3.org/1999/xlink">
    <title>编组 5备份 2</title>
    <g id="页面-1" stroke="none" stroke-width="1" fill="none" fill-rule="evenodd">
        <g id="加入我们-人在-Netless" transform="translate(-758.000000, -1554.000000)">
            <g id="编组-5备份-2" transform="translate(758.000000, 1554.000000)">
                <rect id="矩形备份-7" fill="#FFFFFF" x="0" y="0" width="120" height="120"></rect>
                <line x1="60" y1="74" x2="60" y2="92" id="路径-96备份-2" stroke="#A9CAFF" stroke-width="2" stroke-linecap="round" stroke-linejoin="round"></line>
                <path d="M28,34 L92,34 L92,66 C92,70.418278 88.418278,74 84,74 L36,74 C31.581722,74 28,70.418278 28,66 L28,34 L28,34 Z" id="矩形" stroke="#3381FF" stroke-width="2" stroke-linecap="round" stroke-linejoin="round"></path>
                <line x1="60" y1="24" x2="60" y2="34" id="路径-94" stroke="#3381FF" stroke-width="2" stroke-linecap="round" stroke-linejoin="round"></line>
                <line x1="20" y1="34" x2="100" y2="34" id="路径-95" stroke="#3381FF" stroke-width="2" stroke-linecap="round" stroke-linejoin="round"></line>
                <line x1="38" y1="74" x2="30" y2="96" id="路径-96" stroke="#3381FF" stroke-width="2" stroke-linecap="round" stroke-linejoin="round"></line>
                <line x1="82" y1="74" x2="90" y2="96" id="路径-96备份" stroke="#3381FF" stroke-width="2" stroke-linecap="round" stroke-linejoin="round"></line>
                <line x1="38" y1="46" x2="64" y2="46" id="路径-97" stroke="#A9CAFF" stroke-width="2" stroke-linecap="round" stroke-linejoin="round"></line>
                <line x1="38" y1="58" x2="56" y2="58" id="路径-97备份" stroke="#A9CAFF" stroke-width="2" stroke-linecap="round" stroke-linejoin="round"></line>
            </g>
        </g>
    </g>
</svg>