<?xml version="1.0" encoding="UTF-8"?>
<svg width="120px" height="120px" viewBox="0 0 120 120" version="1.1" xmlns="http://www.w3.org/2000/svg" xmlns:xlink="http://www.w3.org/1999/xlink">
    <title>编组 5备份 2</title>
    <g id="页面-1" stroke="none" stroke-width="1" fill="none" fill-rule="evenodd">
        <g id="加入我们-人在-Netless" transform="translate(-758.000000, -1946.000000)">
            <g id="编组-5备份-2" transform="translate(758.000000, 1946.000000)">
                <rect id="矩形备份-7" fill="#FFFFFF" x="0" y="0" width="120" height="120"></rect>
                <path d="M25.3471982,50 L37,50 L37,50 L37,98 L28.6805315,98 C26.600177,98 24.8671125,96.4053504 24.6943485,94.3321819 L21.3610152,54.3321819 C21.1775562,52.1306738 22.8135082,50.197276 25.0150163,50.013817 C25.1255042,50.0046096 25.2363273,50 25.3471982,50 Z" id="路径-98" stroke="#A9CAFF" stroke-width="2" stroke-linecap="round" stroke-linejoin="round"></path>
                <path d="M45,50 L45,98 L81.6259518,98 C85.3557542,98 88.5906615,95.4225682 89.4238104,91.7870093 L96.7571437,59.7870093 C97.7440817,55.4803709 95.0529328,51.1890794 90.7462944,50.2021415 C90.1601157,50.0678088 89.5606592,50 88.9592852,50 L72,50 L72,50 L73.1679497,40.6564024 C73.7104885,36.3160923 72.9561513,31.9123026 71,28 L69.8439089,25.6878178 C68.7665364,23.5330728 66.337149,22.4157127 64,23 C61.5710905,23.6072274 59.7337652,25.5974087 59.3221656,28.0670063 L58.5,33 C57.5429761,38.7421436 54.2519089,43.8320607 49.4082535,47.0611644 L45,50 L45,50 Z" id="路径-99" stroke="#3381FF" stroke-width="2" stroke-linecap="round" stroke-linejoin="round"></path>
            </g>
        </g>
    </g>
</svg>