<?xml version="1.0" encoding="UTF-8"?>
<svg width="109px" height="32px" viewBox="0 0 109 32" version="1.1" xmlns="http://www.w3.org/2000/svg" xmlns:xlink="http://www.w3.org/1999/xlink">
    <title>编组 2备份</title>
    <g id="页面-1" stroke="none" stroke-width="1" fill="none" fill-rule="evenodd">
        <g id="首页" transform="translate(-180.000000, -16.000000)">
            <g id="编组-2备份" transform="translate(180.000000, 16.000000)">
                <rect id="矩形" x="0" y="0" width="109" height="32"></rect>
                <path d="M76.6212095,11.7522124 C77.2031995,11.7522124 77.7458658,11.79941 78.2492085,11.8938053 C78.7682807,11.972468 79.2165702,12.0983284 79.5940772,12.2713864 C79.9715843,12.4444445 80.2704439,12.6725664 80.4906564,12.9557522 C80.7108688,13.2232055 80.820975,13.5457227 80.820975,13.9233038 C80.820975,14.2851524 80.7501924,14.5998034 80.6086273,14.8672566 C80.4827916,15.1189774 80.3176323,15.3313668 80.1131494,15.5044248 C79.9873137,15.4257621 79.7985602,15.3470993 79.5468888,15.2684366 C79.2952175,15.1740413 79.019952,15.0953786 78.7210923,15.0324484 C78.4222325,14.9537857 78.1155081,14.8908555 77.8009189,14.8436578 C77.5020592,14.7964602 77.2267937,14.7728614 76.9751223,14.7728614 C76.4560502,14.7728614 76.054949,14.8357916 75.7718188,14.9616519 C75.4886885,15.0717798 75.3471233,15.252704 75.3471233,15.5044248 C75.3471233,15.6774828 75.4257707,15.8190757 75.5830652,15.9292036 C75.7403599,16.0393314 76.0392195,16.1415929 76.4796444,16.2359882 L77.2110643,16.40118 C78.7210923,16.747296 79.7906955,17.2271386 80.4198738,17.840708 C81.0647816,18.4385448 81.3872356,19.2173058 81.3872356,20.1769911 C81.3872356,21.3726647 80.9389459,22.3087513 80.0423668,22.9852508 C79.1457877,23.6617503 77.8245131,24 76.0785432,24 C75.4179059,24 74.8044571,23.9528024 74.2381965,23.8584071 C73.671936,23.7640119 73.1843228,23.622419 72.7753568,23.4336284 C72.3821204,23.2291052 72.0675312,22.9773845 71.8315894,22.6784661 C71.6113769,22.3795477 71.5012707,22.0255654 71.5012707,21.6165192 C71.5012707,21.2389381 71.579918,20.9242871 71.7372126,20.6725664 C71.8945072,20.4051131 72.0832607,20.1848575 72.3034731,20.0117994 C72.7596274,20.2635202 73.2786995,20.4916421 73.8606895,20.6961652 C74.4584089,20.8849558 75.1426404,20.9793511 75.9133839,20.9793511 C76.4009971,20.9793511 76.7706394,20.9085546 77.0223107,20.7669617 C77.2897115,20.6253688 77.423412,20.4365782 77.423412,20.20059 C77.423412,19.9803344 77.3290352,19.8072763 77.1402817,19.6814159 C76.9515281,19.5555556 76.636939,19.453294 76.1965142,19.3746313 L75.4886885,19.2330384 C74.1202256,18.9655851 73.0978108,18.5486726 72.421444,17.9823009 C71.7608068,17.4001967 71.4304881,16.574238 71.4304881,15.5044248 C71.4304881,14.9223206 71.5563238,14.3952802 71.8079952,13.9233038 C72.0596665,13.4513274 72.4135793,13.0580138 72.8697336,12.7433628 C73.3258879,12.4287119 73.8685543,12.1848574 74.4977326,12.0117994 C75.1426404,11.8387414 75.850466,11.7522124 76.6212095,11.7522124 Z M88.233974,11.7522124 C88.8159639,11.7522124 89.3586303,11.79941 89.861973,11.8938053 C90.3810451,11.972468 90.8293347,12.0983284 91.2068417,12.2713864 C91.5843487,12.4444445 91.8832085,12.6725664 92.1034208,12.9557522 C92.3236333,13.2232055 92.4337395,13.5457227 92.4337395,13.9233038 C92.4337395,14.2851524 92.362957,14.5998034 92.2213918,14.8672566 C92.0955562,15.1189774 91.9303968,15.3313668 91.7259138,15.5044248 C91.6000781,15.4257621 91.4113246,15.3470993 91.1596534,15.2684366 C90.907982,15.1740413 90.6327165,15.0953786 90.3338567,15.0324484 C90.0349971,14.9537857 89.7282725,14.8908555 89.4136834,14.8436578 C89.1148237,14.7964602 88.8395581,14.7728614 88.5878868,14.7728614 C88.0688147,14.7728614 87.6677135,14.8357916 87.3845832,14.9616519 C87.101453,15.0717798 86.9598879,15.252704 86.9598879,15.5044248 C86.9598879,15.6774828 87.0385351,15.8190757 87.1958297,15.9292036 C87.3531243,16.0393314 87.651984,16.1415929 88.0924089,16.2359882 L88.8238287,16.40118 C90.3338567,16.747296 91.40346,17.2271386 92.0326383,17.840708 C92.6775461,18.4385448 93,19.2173058 93,20.1769911 C93,21.3726647 92.5517105,22.3087513 91.6551313,22.9852508 C90.7585521,23.6617503 89.4372776,24 87.6913077,24 C87.0306704,24 86.4172215,23.9528024 85.850961,23.8584071 C85.2847005,23.7640119 84.7970873,23.622419 84.3881213,23.4336284 C83.9948848,23.2291052 83.6802957,22.9773845 83.4443538,22.6784661 C83.2241414,22.3795477 83.1140352,22.0255654 83.1140352,21.6165192 C83.1140352,21.2389381 83.1926825,20.9242871 83.349977,20.6725664 C83.5072717,20.4051131 83.6960252,20.1848575 83.9162376,20.0117994 C84.3723919,20.2635202 84.891464,20.4916421 85.473454,20.6961652 C86.0711734,20.8849558 86.7554049,20.9793511 87.5261483,20.9793511 C88.0137616,20.9793511 88.3834038,20.9085546 88.6350752,20.7669617 C88.902476,20.6253688 89.0361764,20.4365782 89.0361764,20.20059 C89.0361764,19.9803344 88.9417996,19.8072763 88.7530461,19.6814159 C88.5642926,19.5555556 88.2497035,19.453294 87.8092786,19.3746313 L87.101453,19.2330384 C85.7329901,18.9655851 84.7105752,18.5486726 84.0342086,17.9823009 C83.3735712,17.4001967 83.0432526,16.574238 83.0432526,15.5044248 C83.0432526,14.9223206 83.1690883,14.3952802 83.4207596,13.9233038 C83.672431,13.4513274 84.0263438,13.0580138 84.4824981,12.7433628 C84.9386524,12.4287119 85.4813187,12.1848574 86.1104971,12.0117994 C86.7554049,11.8387414 87.4632305,11.7522124 88.233974,11.7522124 Z M35.1817047,11.7758112 C36.015366,11.7758112 36.77038,11.9016716 37.4467467,12.1533923 C38.1388429,12.4051131 38.7286976,12.7512291 39.2163109,13.1917404 C39.7196535,13.6322517 40.1050253,14.159292 40.372426,14.7728614 C40.6555563,15.3864307 40.7971215,16.0550639 40.7971215,16.7787611 C40.7971215,17.3136677 40.6476916,17.7227138 40.3488318,18.0058997 C40.0499721,18.2890856 39.6331415,18.4700098 39.0983399,18.5486726 L33.2705754,19.421829 C33.4435994,19.941003 33.7975122,20.3343167 34.3323139,20.6017699 C34.8671155,20.8534907 35.4805643,20.9793511 36.1726605,20.9793511 C36.8175684,20.9793511 37.4231525,20.9006883 37.9894131,20.7433629 C38.571403,20.5703048 39.0432868,20.373648 39.4050644,20.1533923 C39.6567356,20.3107178 39.8690833,20.5309735 40.0421074,20.8141593 C40.2151315,21.0973452 40.3016434,21.3962636 40.3016434,21.7109144 C40.3016434,22.418879 39.9713248,22.9459194 39.3106876,23.2920354 C38.8073449,23.5594888 38.2410844,23.740413 37.611906,23.8348083 C36.9827277,23.9292036 36.3928729,23.9764012 35.8423419,23.9764012 C34.9143039,23.9764012 34.0491836,23.8505409 33.2469812,23.5988201 C32.4605083,23.3313668 31.7684121,22.9380531 31.1706927,22.418879 C30.5887027,21.899705 30.1246836,21.2468044 29.7786356,20.460177 C29.448317,19.6735497 29.2831576,18.7531957 29.2831576,17.6991151 C29.2831576,16.660767 29.448317,15.7718781 29.7786356,15.0324484 C30.1246836,14.2772861 30.5729733,13.6637168 31.1235043,13.1917404 C31.6740354,12.7040315 32.3032137,12.3500492 33.0110393,12.1297935 C33.718865,11.8938053 34.4424201,11.7758112 35.1817047,11.7758112 Z M64.1675351,11.7758112 C65.0011964,11.7758112 65.7562104,11.9016716 66.4325771,12.1533923 C67.1246733,12.4051131 67.714528,12.7512291 68.2021413,13.1917404 C68.705484,13.6322517 69.0908557,14.159292 69.3582564,14.7728614 C69.6413868,15.3864307 69.7829519,16.0550639 69.7829519,16.7787611 C69.7829519,17.3136677 69.633522,17.7227138 69.3346622,18.0058997 C69.0358026,18.2890856 68.6189719,18.4700098 68.0841703,18.5486726 L62.2564058,19.421829 C62.4294299,19.941003 62.7833427,20.3343167 63.3181443,20.6017699 C63.8529459,20.8534907 64.4663948,20.9793511 65.1584909,20.9793511 C65.8033988,20.9793511 66.4089829,20.9006883 66.9752435,20.7433629 C67.5572334,20.5703048 68.0291172,20.373648 68.3908948,20.1533923 C68.6425661,20.3107178 68.8549138,20.5309735 69.0279378,20.8141593 C69.2009619,21.0973452 69.2874739,21.3962636 69.2874739,21.7109144 C69.2874739,22.418879 68.9571553,22.9459194 68.296518,23.2920354 C67.7931753,23.5594888 67.2269148,23.740413 66.5977364,23.8348083 C65.9685581,23.9292036 65.3787034,23.9764012 64.8281723,23.9764012 C63.9001343,23.9764012 63.0350141,23.8505409 62.2328116,23.5988201 C61.4463387,23.3313668 60.7542425,22.9380531 60.1565231,22.418879 C59.5745331,21.899705 59.1105141,21.2468044 58.764466,20.460177 C58.4341474,19.6735497 58.268988,18.7531957 58.268988,17.6991151 C58.268988,16.660767 58.4341474,15.7718781 58.764466,15.0324484 C59.1105141,14.2772861 59.5588037,13.6637168 60.1093348,13.1917404 C60.6598658,12.7040315 61.2890442,12.3500492 61.9968698,12.1297935 C62.7046955,11.8938053 63.4282505,11.7758112 64.1675351,11.7758112 Z M44.5445437,9.60471977 C45.2366399,9.60471977 45.7714415,9.73058014 46.1489485,9.98230089 C46.542185,10.2182891 46.7388032,10.7295969 46.7388032,11.5162242 L46.7388032,13.0265487 L49.8296419,13.0265487 C49.9240186,13.1996067 50.0105307,13.4198624 50.0891779,13.6873156 C50.1835547,13.9390364 50.230743,14.2222222 50.230743,14.5368732 C50.230743,15.0875123 50.1049074,15.4886922 49.853236,15.740413 C49.6172942,15.9764012 49.2948402,16.0943953 48.8858743,16.0943953 L46.7388032,16.0943953 L46.7388032,19.6578171 C46.7388032,20.0668634 46.8646389,20.3579155 47.1163102,20.5309735 C47.383711,20.7040315 47.7533534,20.7905605 48.2252371,20.7905605 C48.4611789,20.7905605 48.7049856,20.774828 48.9566569,20.7433629 C49.2083282,20.6961652 49.4285407,20.6411013 49.6172942,20.5781711 C49.7588593,20.7512292 49.8768302,20.9478859 49.971207,21.1681417 C50.0813132,21.3726647 50.1363663,21.6243855 50.1363663,21.9233038 C50.1363663,22.5211407 49.9082892,23.0088496 49.4521349,23.3864307 C49.01171,23.7640119 48.2252371,23.9528024 47.092716,23.9528024 C45.7085237,23.9528024 44.6389204,23.6381515 43.8839065,23.0088496 C43.1446219,22.3795477 42.7749796,21.3569322 42.7749796,19.941003 L42.7749796,9.84070797 C42.9480037,9.79351033 43.1918103,9.74631268 43.5063995,9.69911505 C43.8367181,9.63618486 44.1827661,9.60471977 44.5445437,9.60471977 Z M21.7333877,11.7758112 C23.5108166,11.7758112 24.8792795,12.1691249 25.8387764,12.9557522 C26.7982734,13.726647 27.2780219,14.8043265 27.2780219,16.1887906 L27.2780219,23.5752213 C27.1207274,23.622419 26.869056,23.6696165 26.523008,23.7168142 C26.1926892,23.7640119 25.8466412,23.7876107 25.4848636,23.7876107 C25.1388155,23.7876107 24.8242263,23.7640119 24.5410961,23.7168142 C24.2736953,23.6696165 24.0456182,23.5752213 23.8568646,23.4336284 C23.6681111,23.2920354 23.5186813,23.1032448 23.4085751,22.8672567 C23.3141983,22.6155359 23.2670099,22.2930187 23.2670099,21.899705 L23.2670099,16.3303835 C23.2670099,15.8426745 23.1254448,15.4886922 22.8423146,15.2684366 C22.5749138,15.0324484 22.2052715,14.9144543 21.7333877,14.9144543 C21.4187985,14.9144543 21.1042094,14.9537857 20.7896202,15.0324484 C20.4907605,15.1111111 20.2312244,15.2291052 20.011012,15.3864307 L20.011012,23.5752213 C19.8537174,23.622419 19.6020461,23.6696165 19.255998,23.7168142 C18.9256793,23.7640119 18.5796312,23.7876107 18.2178537,23.7876107 C17.8718056,23.7876107 17.5572164,23.7640119 17.2740862,23.7168142 C17.0066854,23.6696165 16.7786082,23.5752213 16.5898547,23.4336284 C16.4011012,23.2920354 16.2516713,23.1032448 16.1415651,22.8672567 C16.0471884,22.6155359 16,22.2930187 16,21.899705 L16,14.820059 C16,14.3952802 16.086512,14.0491642 16.2595361,13.7817109 C16.4482896,13.5142576 16.6999609,13.2704032 17.0145501,13.0501475 C17.5493517,12.6725664 18.2178537,12.3657817 19.0200561,12.1297935 C19.8379879,11.8938053 20.7424318,11.7758112 21.7333877,11.7758112 Z M54.0386222,8 C54.3846703,8 54.6913947,8.02359882 54.9587956,8.07079646 C55.2419258,8.1179941 55.4778677,8.21238938 55.6666212,8.3539823 C55.8553747,8.49557522 55.9969399,8.69223206 56.0913166,8.94395281 C56.2014228,9.17994101 56.2564759,9.49459194 56.2564759,9.88790561 L56.2564759,23.5752213 C56.0834518,23.6066863 55.8239158,23.6460177 55.4778677,23.6932154 C55.1475491,23.7561455 54.8093657,23.7876107 54.4633176,23.7876107 C54.1172695,23.7876107 53.8026803,23.7640119 53.5195501,23.7168142 C53.2521493,23.6696165 53.0240721,23.5752213 52.8353186,23.4336284 C52.6465651,23.2920354 52.4971352,23.1032448 52.387029,22.8672567 C52.2926523,22.6155359 52.2454639,22.2930187 52.2454639,21.899705 L52.2454639,8.21238938 C52.418488,8.18092429 52.6701593,8.14159292 53.0004779,8.09439528 C53.346526,8.03146509 53.6925742,8 54.0386222,8 Z M35.1817047,14.7020649 C34.8041976,14.7020649 34.473879,14.7649951 34.1907487,14.8908555 C33.9233479,15.0167158 33.7031355,15.1819076 33.5301115,15.3864307 C33.3570875,15.5752212 33.223387,15.7954769 33.1290103,16.0471977 C33.050363,16.2831859 33.0031746,16.5270403 32.9874451,16.7787611 L37.0220513,16.1179941 C36.9748629,15.8033432 36.8018389,15.4886922 36.5029792,15.1740413 C36.2041195,14.8593904 35.7636946,14.7020649 35.1817047,14.7020649 Z M64.1675351,14.7020649 C63.790028,14.7020649 63.4597094,14.7649951 63.1765792,14.8908555 C62.9091784,15.0167158 62.6889659,15.1819076 62.5159419,15.3864307 C62.3429179,15.5752212 62.2092174,15.7954769 62.1148407,16.0471977 C62.0361934,16.2831859 61.989005,16.5270403 61.9732756,16.7787611 L66.0078818,16.1179941 C65.9606934,15.8033432 65.7876693,15.4886922 65.4888097,15.1740413 C65.1899499,14.8593904 64.749525,14.7020649 64.1675351,14.7020649 Z" id="形状结合" fill="#FFFFFF" fill-rule="nonzero"></path>
            </g>
        </g>
    </g>
</svg>