<?xml version="1.0" encoding="UTF-8"?>
<svg width="120px" height="120px" viewBox="0 0 120 120" version="1.1" xmlns="http://www.w3.org/2000/svg" xmlns:xlink="http://www.w3.org/1999/xlink">
    <title>编组 6</title>
    <g id="页面-1" stroke="none" stroke-width="1" fill="none" fill-rule="evenodd">
        <g id="产品详情" transform="translate(-206.000000, -4084.000000)">
            <g id="编组备份-2" transform="translate(180.000000, 4058.000000)">
                <g id="编组-6" transform="translate(26.000000, 26.000000)">
                    <rect id="矩形备份-8" fill="#FFFFFF" x="0" y="0" width="120" height="120"></rect>
                    <rect id="矩形备份-9" stroke="#3381FF" stroke-width="2" stroke-linecap="round" stroke-linejoin="round" x="40" y="40" width="40" height="40" rx="4"></rect>
                    <path d="M44,71 L48,67 C50.7614237,64.2385763 55.2385763,64.2385763 58,67 L59,68 C61.209139,70.209139 64.790861,70.209139 67,68 C69.2772061,65.7227939 72.9025076,65.5220061 75.417261,67.5338088 L76,68 L76,68" id="路径-4" stroke="#3381FF" stroke-width="2" stroke-linecap="round" stroke-linejoin="round"></path>
                    <circle id="椭圆形" stroke="#3381FF" stroke-width="2" stroke-linecap="round" stroke-linejoin="round" cx="64" cy="52" r="4"></circle>
                    <path d="M60,20 C37.90861,20 20,37.90861 20,60" id="椭圆形" stroke="#A9CAFF" stroke-width="2" stroke-linecap="round" stroke-linejoin="round"></path>
                    <path d="M60,100 C82.09139,100 100,82.09139 100,60" id="椭圆形" stroke="#A9CAFF" stroke-width="2" stroke-linecap="round" stroke-linejoin="round"></path>
                    <line x1="60" y1="20" x2="56" y2="26" id="路径-18" stroke="#A9CAFF" stroke-width="2" stroke-linecap="round" stroke-linejoin="round"></line>
                    <line x1="64" y1="94" x2="60" y2="100" id="路径-18备份" stroke="#A9CAFF" stroke-width="2" stroke-linecap="round" stroke-linejoin="round"></line>
                </g>
            </g>
        </g>
    </g>
</svg>