<?xml version="1.0" encoding="UTF-8"?>
<svg width="120px" height="120px" viewBox="0 0 120 120" version="1.1" xmlns="http://www.w3.org/2000/svg" xmlns:xlink="http://www.w3.org/1999/xlink">
    <title>编组 6</title>
    <g id="页面-1" stroke="none" stroke-width="1" fill="none" fill-rule="evenodd">
        <g id="产品详情" transform="translate(-206.000000, -3685.000000)">
            <g id="编组备份" transform="translate(180.000000, 3659.000000)">
                <g id="编组-6" transform="translate(26.000000, 26.000000)">
                    <rect id="矩形备份-8" fill="#FFFFFF" x="0" y="0" width="120" height="120"></rect>
                    <line x1="48" y1="62" x2="56" y2="62" id="路径-53" stroke="#3381FF" stroke-width="2" stroke-linecap="round" stroke-linejoin="round"></line>
                    <line x1="48" y1="68" x2="64" y2="68" id="路径-53备份" stroke="#3381FF" stroke-width="2" stroke-linecap="round" stroke-linejoin="round"></line>
                    <path d="M60,20 C37.90861,20 20,37.90861 20,60" id="椭圆形" stroke="#A9CAFF" stroke-width="2" stroke-linecap="round" stroke-linejoin="round"></path>
                    <path d="M60,100 C82.09139,100 100,82.09139 100,60" id="椭圆形" stroke="#A9CAFF" stroke-width="2" stroke-linecap="round" stroke-linejoin="round"></path>
                    <line x1="60" y1="20" x2="56" y2="26" id="路径-18" stroke="#A9CAFF" stroke-width="2" stroke-linecap="round" stroke-linejoin="round"></line>
                    <line x1="64" y1="94" x2="60" y2="100" id="路径-18备份" stroke="#A9CAFF" stroke-width="2" stroke-linecap="round" stroke-linejoin="round"></line>
                    <rect id="矩形备份-4" stroke="#3381FF" stroke-width="2" stroke-linecap="round" stroke-linejoin="round" x="40" y="40" width="40" height="40" rx="4"></rect>
                    <line x1="40" y1="50" x2="80" y2="50" id="路径-16备份-3" stroke="#3381FF" stroke-width="2" stroke-linecap="round" stroke-linejoin="round"></line>
                    <circle id="椭圆形" fill="#3381FF" cx="75" cy="45" r="1"></circle>
                    <circle id="椭圆形备份-2" fill="#3381FF" cx="69" cy="45" r="1"></circle>
                    <circle id="椭圆形备份-3" fill="#3381FF" cx="63" cy="45" r="1"></circle>
                </g>
            </g>
        </g>
    </g>
</svg>