<?xml version="1.0" encoding="UTF-8"?>
<svg width="120px" height="120px" viewBox="0 0 120 120" version="1.1" xmlns="http://www.w3.org/2000/svg" xmlns:xlink="http://www.w3.org/1999/xlink">
    <title>编组 24</title>
    <g id="页面-1" stroke="none" stroke-width="1" fill="none" fill-rule="evenodd">
        <g id="产品详情" transform="translate(-206.000000, -2609.000000)">
            <g id="编组-24" transform="translate(206.000000, 2609.000000)">
                <rect id="矩形备份-7" fill="#FFFFFF" x="0" y="0" width="120" height="120"></rect>
                <path d="M40,48 C44.418278,48 48,51.581722 48,56 C48,57.4576273 47.6101668,58.8242042 46.9290715,60.0011597 L60,60 L60.0011597,73.0709285 C58.8242042,72.3898332 57.4576273,72 56,72 C51.581722,72 48,75.581722 48,80 C48,84.418278 51.581722,88 56,88 C57.4576273,88 58.8242042,87.6101668 60.0011597,86.9290715 L60,100 L32,100 C25.372583,100 20,94.627417 20,88 L20,60 L33.0709285,60.0011597 C32.3898332,58.8242042 32,57.4576273 32,56 C32,51.581722 35.581722,48 40,48 Z" id="形状结合" stroke="#A9CAFF" stroke-width="2" stroke-linecap="round" stroke-linejoin="round"></path>
                <path d="M88,20 C94.627417,20 100,25.372583 100,32 L100,60 L86.9296499,59.99984 C87.6103875,61.1765696 88,62.5427854 88,64 C88,68.418278 84.418278,72 80,72 C75.581722,72 72,68.418278 72,64 C72,62.5427854 72.3896125,61.1765696 73.0703501,59.99984 L60,60 L59.9988703,46.9290888 C61.175819,47.6101735 62.5423851,48 64,48 C68.418278,48 72,44.418278 72,40 C72,35.581722 68.418278,32 64,32 C62.5423851,32 61.175819,32.3898265 59.9988703,33.0709112 L60,20 L88,20 Z" id="形状结合" stroke="#A9CAFF" stroke-width="2" stroke-linecap="round" stroke-linejoin="round"></path>
                <path d="M86.9290888,59.9988703 L100,60 L100,88 C100,94.627417 94.627417,100 88,100 L60,100 L60.0011597,86.9290715 C58.8242042,87.6101668 57.4576273,88 56,88 C51.581722,88 48,84.418278 48,80 C48,75.581722 51.581722,72 56,72 C57.4576273,72 58.8242042,72.3898332 60.0011597,73.0709285 L60,60 L73.0709112,59.9988703 C72.3898265,61.175819 72,62.5423851 72,64 C72,68.418278 75.581722,72 80,72 C84.418278,72 88,68.418278 88,64 C88,62.5423851 87.6101735,61.175819 86.9290888,59.9988703 Z" id="形状结合" stroke="#3381FF" stroke-width="2" stroke-linecap="round" stroke-linejoin="round"></path>
            </g>
        </g>
    </g>
</svg>