<?xml version="1.0" encoding="UTF-8"?>
<svg width="360px" height="240px" viewBox="0 0 360 240" version="1.1" xmlns="http://www.w3.org/2000/svg" xmlns:xlink="http://www.w3.org/1999/xlink">
    <title>编组 10</title>
    <g id="页面-1" stroke="none" stroke-width="1" fill="none" fill-rule="evenodd">
        <g id="首页" transform="translate(-180.000000, -3275.000000)">
            <rect fill="#FFFFFF" x="0" y="0" width="1440" height="4813"></rect>
            <rect id="矩形" fill="#FFFFFF" x="0" y="2307" width="1440" height="1270"></rect>
            <g id="编组-23" transform="translate(180.000000, 3275.000000)">
                <rect id="矩形备份-3" fill="#FFFFFF" x="0" y="0" width="360" height="240"></rect>
                <g id="编组-22" transform="translate(36.000000, 37.000000)" stroke-linecap="round" stroke-linejoin="round" stroke-width="2">
                    <path d="M167.5,67.330127 L179.5,67.330127 C185.022847,67.330127 189.5,62.8529745 189.5,57.330127 L189.5,52.830127 C189.5,49.7925609 187.037566,47.330127 184,47.330127 C180.962434,47.330127 178.5,49.7925609 178.5,52.830127 L178.5,53.330127 C178.5,56.6438355 181.186292,59.330127 184.5,59.330127 L189,59.330127 C194.79899,59.330127 199.5,54.6291169 199.5,48.830127 L199.5,48.8038476 L199.5,48.8038476" id="路径-48" stroke="#A9CAFF" transform="translate(183.500000, 57.330127) rotate(-30.000000) translate(-183.500000, -57.330127) "></path>
                    <path d="M36,15 C55.882251,15 72,31.117749 72,51 L72,51 L72,51 L48,51 C41.372583,51 36,45.627417 36,39 L36,15 L36,15 Z" id="矩形" stroke="#3381FF" fill="#FFFFFF"></path>
                    <path d="M44,136 L64,136 L55.5811388,161.256584 C54.6368981,164.089306 51.9859515,166 49,166 C46.2385763,166 44,163.761424 44,161 L44,136 L44,136 Z" id="矩形" stroke="#3381FF" fill="#FFFFFF"></path>
                    <path d="M100,136 L120,136 L111.581139,161.256584 C110.636898,164.089306 107.985951,166 105,166 C102.238576,166 100,163.761424 100,161 L100,136 L100,136 Z" id="矩形备份-41" stroke="#3381FF" fill="#FFFFFF"></path>
                    <path d="M66,15 C79.7340782,15 91.6718706,22.6908142 97.7416091,34.0006746 L127,34 C156.823376,34 181,58.1766235 181,88 C181,110.374806 167.391803,129.571248 148.000326,137.764407 L148,161 C148,163.761424 145.761424,166 143,166 C140.014049,166 137.363102,164.089306 136.418861,161.256584 L129.972838,141.919555 C128.988671,141.972954 127.997494,142 127,142 L92,142 L92,161 C92,163.761424 89.7614237,166 87,166 C84.0140485,166 81.3631019,164.089306 80.4188612,161.256584 L74,142 L65,142 C35.1766235,142 11,117.823376 11,88 C11,58.1766235 35.1766235,34 65,34 L66,34 L66,15 Z" id="形状结合" stroke="#3381FF" fill="#FFFFFF"></path>
                    <line x1="104" y1="130" x2="120" y2="130" id="路径-49" stroke="#3381FF"></line>
                    <line x1="128" y1="130" x2="134" y2="130" id="路径-50" stroke="#3381FF"></line>
                    <path d="M13.7143086,104.996531 C6.11420308,104.811799 0,97.2729291 0,88 C0,78.6111593 6.2680135,71 14,71 L14,71 L23,71 L23.0003073,71.0426729 C23.3305084,71.014384 23.6638708,71 24,71 C31.7319865,71 38,78.6111593 38,88 C38,97.3888407 31.7319865,105 24,105 C23.6638708,105 23.3305084,104.985616 23.0003073,104.957327 L23,105 L14,105 Z" id="形状结合" stroke="#3381FF" fill="#FFFFFF"></path>
                    <circle id="椭圆形" stroke="#3381FF" fill="#FFFFFF" cx="54" cy="70" r="6"></circle>
                    <path d="M114,48 L146,48 C146,51.3137085 143.313708,54 140,54 L120,54 C116.686292,54 114,51.3137085 114,48 L114,48 L114,48 Z" id="矩形" stroke="#3381FF" fill="#FFFFFF"></path>
                    <path d="M74,28 C82.2842712,28 89,34.7157288 89,43 L89,43 L89,43 L80,43 C76.6862915,43 74,40.3137085 74,37 L74,28 L74,28 Z" id="矩形" stroke="#A9CAFF" fill="#FFFFFF"></path>
                    <ellipse id="椭圆形" stroke="#3381FF" fill="#FFFFFF" cx="14" cy="88" rx="14" ry="17"></ellipse>
                    <ellipse id="椭圆形" stroke="#A9CAFF" fill="#FFFFFF" cx="17" cy="87" rx="3" ry="5"></ellipse>
                    <ellipse id="椭圆形备份-15" stroke="#A9CAFF" fill="#FFFFFF" cx="7" cy="87" rx="3" ry="5"></ellipse>
                    <g id="编组-16备份" transform="translate(130.000000, 22.000000) rotate(-330.000000) translate(-130.000000, -22.000000) translate(114.000000, 6.000000)">
                        <circle id="椭圆形" stroke="#3381FF" fill="#FFFFFF" cx="16" cy="16" r="16"></circle>
                        <circle id="椭圆形" stroke="#A9CAFF" fill="#FFFFFF" cx="16" cy="16" r="12"></circle>
                        <path d="M13,11 L16,14 L19,11 M13,15 L19,15 M13,18 L19,18 M16,15 L16,21" id="形状结合" stroke="#3381FF"></path>
                    </g>
                </g>
                <g id="编组-21" transform="translate(244.500000, 155.000000) rotate(-345.000000) translate(-244.500000, -155.000000) translate(200.000000, 104.000000)" stroke-linecap="round" stroke-linejoin="round" stroke-width="2">
                    <rect id="矩形" stroke="#A9CAFF" fill="#FFFFFF" x="38" y="8" width="12" height="8"></rect>
                    <rect id="矩形备份-38" stroke="#A9CAFF" fill="#FFFFFF" transform="translate(74.363961, 24.142136) rotate(-315.000000) translate(-74.363961, -24.142136) " x="69.363961" y="20.1421356" width="10" height="8"></rect>
                    <rect id="矩形备份-37" stroke="#A9CAFF" fill="#FFFFFF" x="32" y="0" width="24" height="8" rx="4"></rect>
                    <path d="M80.0208153,14.4852814 C84.4390933,14.4852814 88.0208153,18.0670034 88.0208153,22.4852814 L88.0208153,22.4852814 L88.0208153,22.4852814 L72.0208153,22.4852814 C72.0208153,18.0670034 75.6025373,14.4852814 80.0208153,14.4852814 Z" id="矩形备份-39" stroke="#A9CAFF" fill="#FFFFFF" transform="translate(80.020815, 18.485281) rotate(-315.000000) translate(-80.020815, -18.485281) "></path>
                    <circle id="椭圆形" stroke="#3381FF" fill="#FFFFFF" cx="44" cy="58" r="44"></circle>
                    <circle id="椭圆形" stroke="#3381FF" fill="#FFFFFF" cx="44" cy="58" r="36"></circle>
                    <polyline id="路径-46" stroke="#3381FF" transform="translate(47.535534, 54.464466) rotate(-315.000000) translate(-47.535534, -54.464466) " points="47.5355339 69.4644661 47.5355339 59.4644661 47.5355339 39.4644661"></polyline>
                    <line x1="44" y1="28" x2="44" y2="30" id="路径-47" stroke="#A9CAFF"></line>
                    <line x1="44" y1="86" x2="44" y2="88" id="路径-47备份" stroke="#A9CAFF"></line>
                    <line x1="74" y1="58" x2="72" y2="58" id="路径-47" stroke="#A9CAFF"></line>
                    <line x1="16" y1="58" x2="14" y2="58" id="路径-47备份" stroke="#A9CAFF"></line>
                    <line x1="65.2132034" y1="36.7867966" x2="63.7989899" y2="38.2010101" id="路径-47" stroke="#A9CAFF"></line>
                    <line x1="24.2010101" y1="77.7989899" x2="22.7867966" y2="79.2132034" id="路径-47备份" stroke="#A9CAFF"></line>
                    <line x1="65.2132034" y1="79.2132034" x2="63.7989899" y2="77.7989899" id="路径-47" stroke="#A9CAFF"></line>
                    <line x1="24.2010101" y1="38.2010101" x2="22.7867966" y2="36.7867966" id="路径-47备份" stroke="#A9CAFF"></line>
                    <circle id="椭圆形" stroke="#3381FF" fill="#FFFFFF" cx="44" cy="58" r="4"></circle>
                </g>
            </g>
        </g>
    </g>
</svg>